<?xml version="1.0" encoding="iso-8859-1"?>
<!-- Generator: Adobe Illustrator 17.1.0, SVG Export Plug-In . SVG Version: 6.00 Build 0)  -->
<!DOCTYPE svg PUBLIC "-//W3C//DTD SVG 1.1//EN" "http://www.w3.org/Graphics/SVG/1.1/DTD/svg11.dtd">
<svg version="1.1" id="Capa_1" xmlns="http://www.w3.org/2000/svg" xmlns:xlink="http://www.w3.org/1999/xlink" x="0px" y="0px"
	 viewBox="0 0 215.533 215.533" style="enable-background:new 0 0 215.533 215.533;" xml:space="preserve">
<path d="M174.488,90.492c-2.993,0-5.909,0.331-8.722,0.942c-0.449-4.626-0.464-7.91-0.464-7.986c0-0.002,0-0.003,0-0.005
	c0-0.001,0-0.003,0-0.004l-0.014-11.074c0-0.179-0.015-0.355-0.027-0.531c0.013-0.18,0.027-0.36,0.027-0.544v-7.732
	c0-11.363-9.244-20.607-20.606-20.607h-4.998c-4.143,0-7.5,3.358-7.5,7.5s3.357,7.5,7.5,7.5h4.998c3.092,0,5.606,2.515,5.606,5.607
	v1.316h-49.645c1.307-1.782,2.089-3.972,2.089-6.346c0-4.745-3.045-8.877-7.578-10.282l-10.098-3.131
	c-4.633-1.436-9.439-2.164-14.289-2.164c-7.263,0-13.171,5.908-13.171,13.171c0,7.115,5.673,12.914,12.732,13.149l0.68,2.319
	l-14.291,22.02c-4.833-2.005-10.125-3.117-15.674-3.117C18.413,90.492,0,108.905,0,131.537s18.413,41.045,41.045,41.045
	c18.393,0,33.999-12.161,39.2-28.865c3.679,4.812,9.46,7.935,15.971,7.935c11.092,0,20.115-9.023,20.115-20.115
	c0-1.899-0.282-3.73-0.776-5.473l29.548-23.143c-7.207,7.399-11.66,17.495-11.66,28.616c0,22.632,18.413,41.045,41.046,41.045
	c22.632,0,41.045-18.413,41.045-41.045S197.12,90.492,174.488,90.492z M60.904,114.714c2.286,2.695,4.035,5.857,5.08,9.324H54.854
	L60.904,114.714z M98.355,111.539L89.07,79.874h61.132l-43.831,34.329C103.968,112.79,101.258,111.848,98.355,111.539z
	 M76.574,90.568l7.354,25.079c-1.384,1.073-2.62,2.319-3.683,3.71c-2.109-6.772-5.936-12.79-10.957-17.561L76.574,90.568z
	 M41.045,157.583C26.684,157.583,15,145.899,15,131.537s11.684-26.045,26.045-26.045c2.529,0,4.971,0.369,7.285,1.044
	l-13.576,20.918c-1.497,2.306-1.611,5.247-0.3,7.663c1.313,2.416,3.842,3.92,6.591,3.92h24.939
	C62.755,149.753,52.799,157.583,41.045,157.583z M174.488,157.583c-14.361,0-26.046-11.684-26.046-26.045
	c0-6.731,2.567-12.874,6.773-17.502c0.153,0.43,0.309,0.857,0.472,1.281c5.406,14.141,12.994,21.1,13.842,21.847
	c1.431,1.262,3.213,1.884,4.987,1.883c2.078,0,4.145-0.853,5.622-2.528c2.739-3.107,2.464-7.825-0.643-10.564
	c-0.057-0.052-5.705-5.29-9.798-15.995c-0.465-1.215-0.878-2.475-1.249-3.753c1.94-0.463,3.96-0.715,6.039-0.715
	c14.361,0,26.045,11.684,26.045,26.045S188.85,157.583,174.488,157.583z"/>
<g>
</g>
<g>
</g>
<g>
</g>
<g>
</g>
<g>
</g>
<g>
</g>
<g>
</g>
<g>
</g>
<g>
</g>
<g>
</g>
<g>
</g>
<g>
</g>
<g>
</g>
<g>
</g>
<g>
</g>
</svg>
